<?xml version="1.0"?>
<svg xmlns="http://www.w3.org/2000/svg" height="512px" viewBox="0 0 480 480" width="512px" class=""><g><path d="m344 48h-56v-24c0-13.253906-10.746094-24-24-24h-48c-13.253906 0-24 10.746094-24 24v24h-56c-13.253906 0-24 10.746094-24 24v384c0 13.253906 10.746094 24 24 24h208c13.253906 0 24-10.746094 24-24v-384c0-13.253906-10.746094-24-24-24zm-136-24c0-4.417969 3.582031-8 8-8h48c4.417969 0 8 3.582031 8 8v24h-64zm144 432c0 4.417969-3.582031 8-8 8h-208c-4.417969 0-8-3.582031-8-8v-384c0-4.417969 3.582031-8 8-8h208c4.417969 0 8 3.582031 8 8zm0 0" data-original="#000000" class="active-path" data-old_color="#000000" fill="#FFFFFF"/><path d="m432 32v-16h-16v-16h-16v16h-16v16h16v16h16v-16zm0 0" data-original="#000000" class="active-path" data-old_color="#000000" fill="#FFFFFF"/><path d="m480 72h-16v-16h-16v16h-16v16h16v16h16v-16h16zm0 0" data-original="#000000" class="active-path" data-old_color="#000000" fill="#FFFFFF"/><path d="m80 0h-16v16h-16v16h16v16h16v-16h16v-16h-16zm0 0" data-original="#000000" class="active-path" data-old_color="#000000" fill="#FFFFFF"/><path d="m32 56h-16v16h-16v16h16v16h16v-16h16v-16h-16zm0 0" data-original="#000000" class="active-path" data-old_color="#000000" fill="#FFFFFF"/><path d="m320 136c-83.734375 0-160 76.265625-160 159.382812l-8 104c-.171875 2.226563.59375 4.425782 2.113281 6.0625 1.519531 1.632813 3.652344 2.5625 5.886719 2.554688 83.734375 0 160-76.265625 160-159.382812l8-104c.171875-2.226563-.59375-4.425782-2.113281-6.0625-1.519531-1.632813-3.652344-2.5625-5.886719-2.554688zm-15.199219 17.097656c-7.207031 10.15625-15.09375 19.816406-23.601562 28.910156-12.933594 13.574219-24.273438 28.585938-33.800781 44.734376-7.488282 12.378906-12.496094 26.09375-14.734376 40.386718-4.761718-5.71875-7.796874-12.671875-8.753906-20.050781-.878906-9.414063 1.503906-18.84375 6.753906-26.710937l-13.390624-8.734376c-16.433594 23.902344-11.335938 56.476563 11.613281 74.214844-2.433594 8.238282-5.882813 16.136719-10.269531 23.519532-5.367188 9.394531-11.539063 18.304687-18.449219 26.632812h-.167969v.214844c-4.304688 5.226562-8.671875 10.121094-13.152344 15.113281-5.464844 6.085937-11.015625 12.289063-16.558594 19.304687l5.710938-74.632812c0-70.265625 59.6875-134.503906 128.800781-142.902344zm4.886719 20.277344-2.488281 33.234375-6.640625-13.816406c-3.75 1.78125-7.617188 3.3125-11.574219 4.582031 1.382813-1.597656 2.785156-3.109375 4.183594-4.679688 5.441406-6.09375 11-12.304687 16.550781-19.320312zm-134.488281 217.527344c7.207031-10.148438 15.085937-19.800782 23.585937-28.894532 3.03125-3.375 6.085938-6.800781 9.160156-10.398437 12.300782-.648437 24.382813-3.523437 35.664063-8.480469 11.691406-6.289062 21.285156-15.867187 27.589844-27.554687l-14.320313-7.148438c-4.75 8.589844-11.824218 15.664063-20.414062 20.414063-4.542969 2.148437-9.335938 3.726562-14.265625 4.695312 3.488281-4.925781 6.953125-10.238281 10.402343-16.230468 8.101563-13.449219 13.324219-28.429688 15.34375-44 1.730469-13.683594 6.3125-26.847657 13.445313-38.648438 3.449219-6.039062 7.234375-11.875 11.34375-17.480469 2.851563-.320312 5.785156-.734375 8.875-1.351562 8.851563-1.753907 17.453125-4.609375 25.597656-8.496094l-3.207031 40.671875c0 70.265625-59.6875 134.503906-128.800781 142.902344zm0 0" data-original="#000000" class="active-path" data-old_color="#000000" fill="#FFFFFF"/></g> </svg>
