<svg width="278" height="36" xmlns="http://www.w3.org/2000/svg">
 <metadata id="metadata43">image/svg+xml</metadata>

 <g>
  <title>background</title>
  <rect fill="none" id="canvas_background" height="38" width="280" y="-1" x="-1"/>
 </g>
 <g>
  <title>Layer 1</title>
  <g stroke="null" id="TESLA">
   <g stroke="null" id="g8">
    <polyline stroke="null" fill="#ffffff" id="polyline10" points="238.0770263671875,14.381423950195312 238.0770263671875,36.29341125488281 245.10400390625,36.29341125488281 245.10400390625,21.704421997070312 270.67901611328125,21.704421997070312 270.67901611328125,36.29341125488281 277.70098876953125,36.29341125488281 277.70098876953125,14.419418334960938 238.0770263671875,14.381423950195312 "/>
    <path stroke="null" fill="#ffffff" id="path12" d="m244.321,7.294001l27.02,0c3.753,-0.746 6.544,-4.058 7.331,-7.262l-41.681,0c0.779,3.205 3.611,6.516 7.33,7.262"/>
   </g>
   <g stroke="null" id="g14">
    <path stroke="null" fill="#ffffff" id="path16" d="m216.795,36.308001c3.543,-1.502 5.449,-4.1 6.179,-7.14l-31.517,0l0.02,-29.118l-7.065,0.02l0,36.238l32.383,0"/>
   </g>
   <g stroke="null" id="g18">
    <path stroke="null" fill="#ffffff" id="path20" d="m131.874,7.196001l24.954,0c3.762,-1.093 6.921,-3.959 7.691,-7.136l-39.64,0l0,21.415l32.444,0l0,7.515l-25.449,0.02c-3.988,1.112 -7.37,3.79 -9.057,7.327l2.062,-0.038l39.415,0l0,-21.944l-32.42,0l0,-7.159"/>
   </g>
   <g stroke="null" id="g22">
    <path stroke="null" fill="#ffffff" id="path24" d="m70.271,7.265001l27.011,0c3.758,-0.749 6.551,-4.058 7.334,-7.265l-41.679,0c0.778,3.207 3.612,6.516 7.334,7.265"/>
    <path stroke="null" fill="#ffffff" id="path26" d="m70.271,21.587001l27.011,0c3.758,-0.741 6.551,-4.053 7.334,-7.262l-41.679,0c0.778,3.21 3.612,6.521 7.334,7.262"/>
    <path stroke="null" fill="#ffffff" id="path28" d="m70.271,36.304001l27.011,0c3.758,-0.747 6.551,-4.058 7.334,-7.263l-41.679,0c0.778,3.206 3.612,6.516 7.334,7.263"/>
   </g>
   <g stroke="null" id="g30">
    <path stroke="null" fill="#ffffff" id="path32" d="m0,0.088001c0.812,3.167 3.554,6.404 7.316,7.215l11.37,0l0.58,0.229l0,28.691l7.1,0l0,-28.691l0.645,-0.229l11.38,0c3.804,-0.98 6.487,-4.048 7.285,-7.215l0,-0.07l-45.676,0l0,0.07"/>
   </g>
  </g>
 </g>
</svg>