<?xml version="1.0"?>
<svg xmlns="http://www.w3.org/2000/svg" xmlns:xlink="http://www.w3.org/1999/xlink" version="1.1" id="Layer_1" x="0px" y="0px" viewBox="0 0 512 512" style="enable-background:new 0 0 512 512;" xml:space="preserve" width="512px" height="512px" class=""><g><g>
	<g>
		<path d="M345.035,127.966c-1.561-3.899-5.987-5.796-9.886-4.233c-3.898,1.561-5.793,5.987-4.233,9.885    c3.813,9.522,5.746,19.601,5.746,29.96c0,44.477-36.184,80.661-80.662,80.661s-80.662-36.184-80.662-80.661    c0-44.477,36.184-80.662,80.662-80.662c25.353,0,48.731,11.571,64.143,31.746c2.55,3.337,7.32,3.976,10.659,1.426    c3.338-2.549,3.976-7.321,1.427-10.659C313.916,81.457,286.132,67.708,256,67.708c-52.863,0-95.87,43.007-95.87,95.87    c0,52.863,43.007,95.869,95.87,95.869s95.87-43.006,95.87-95.869C351.87,151.274,349.569,139.293,345.035,127.966z" data-original="#000000" class="active-path" data-old_color="#000000" fill="#FFFFFF"/>
	</g>
</g><g>
	<g>
		<path d="M389.623,163.578l18.957-44.311c1.497-3.5,0.176-7.567-3.092-9.52l-41.371-24.705l-10.735-46.973    c-0.848-3.707-4.308-6.212-8.089-5.879l-47.987,4.279L260.998,4.807c-2.865-2.497-7.13-2.497-9.996,0l-36.306,31.661    l-47.988-4.277c-3.789-0.335-7.242,2.174-8.089,5.879l-10.734,46.973l-41.371,24.705c-3.269,1.952-4.589,6.02-3.092,9.52    l18.959,44.31l-18.957,44.311c-1.497,3.5-0.176,7.567,3.092,9.52l41.371,24.705l10.734,46.973    c0.847,3.707,4.298,6.212,8.089,5.879l47.987-4.279l36.306,31.661c1.433,1.248,3.215,1.873,4.998,1.873    c1.782,0,3.566-0.625,4.998-1.873l36.307-31.661l47.987,4.277c3.795,0.334,7.241-2.174,8.089-5.879l10.735-46.973l41.37-24.706    c3.269-1.952,4.589-6.019,3.092-9.519L389.623,163.578z M353.529,230.72c-1.782,1.064-3.052,2.81-3.514,4.834l-9.98,43.672    l-44.607-3.976c-2.063-0.185-4.111,0.482-5.674,1.842L256,306.527l-33.751-29.433c-1.391-1.213-3.168-1.873-4.998-1.873    c-0.224,0-0.449,0.01-0.675,0.03l-44.607,3.976l-9.979-43.672c-0.462-2.024-1.732-3.771-3.514-4.835l-38.454-22.963l17.622-41.19    c0.817-1.91,0.817-4.072,0-5.982l-17.623-41.189l38.455-22.963c1.782-1.065,3.052-2.811,3.514-4.835l9.979-43.672l44.608,3.976    c2.062,0.188,4.111-0.482,5.674-1.842l33.751-29.433l33.751,29.433c1.561,1.361,3.605,2.03,5.674,1.842l44.607-3.976l9.98,43.672    c0.462,2.024,1.732,3.771,3.514,4.834l38.454,22.963l-17.622,41.19c-0.817,1.91-0.817,4.072,0,5.982l17.622,41.189L353.529,230.72    z" data-original="#000000" class="active-path" data-old_color="#000000" fill="#FFFFFF"/>
	</g>
</g><g>
	<g>
		<path d="M510.942,497.59l-57.865-97.875c-0.032-0.06-0.069-0.116-0.103-0.174l-24.292-41.089    c-1.369-2.315-3.858-3.734-6.545-3.734H89.866c-2.688,0-5.177,1.419-6.546,3.734L1.059,497.59c-1.39,2.35-1.412,5.266-0.06,7.637    c1.354,2.371,3.874,3.836,6.605,3.836h147.211c0.011,0,0.022,0.002,0.033,0.002c0.008,0,0.015-0.002,0.023-0.002H357.13    c0.008,0,0.015,0.002,0.023,0.002c0.011,0,0.022-0.002,0.033-0.002h56.303c4.2,0,7.604-3.405,7.604-7.604    s-3.404-7.604-7.604-7.604h-50.34l-7.663-31.826h116.764l18.816,31.826h-52.232c-4.2,0-7.604,3.405-7.604,7.604    s3.404,7.604,7.604,7.604h65.561c2.73,0,5.252-1.464,6.605-3.836C512.354,502.856,512.332,499.94,510.942,497.59z     M417.797,369.925l15.246,25.788h-93.525l-6.209-25.788H417.797z M194.333,369.925h123.334l6.209,25.788H188.124L194.333,369.925z     M327.538,410.92l8.644,35.902H175.819l8.644-35.902H327.538z M148.85,493.856H20.932l18.816-31.826h116.764L148.85,493.856z     M48.74,446.823l21.226-35.902h25.511c4.2,0,7.604-3.405,7.604-7.604s-3.404-7.604-7.604-7.604h-16.52l15.245-25.788h84.487    l-6.209,25.788h-51.658c-4.2,0-7.604,3.405-7.604,7.604s3.404,7.604,7.604,7.604h47.996l-8.644,35.902H48.74z M164.494,493.856    l7.663-31.826h167.687l7.663,31.826H164.494z M351.825,446.822l-8.644-35.902h98.854l21.225,35.902H351.825z" data-original="#000000" class="active-path" data-old_color="#000000" fill="#FFFFFF"/>
	</g>
</g></g> </svg>
