<?xml version="1.0"?>
<svg xmlns="http://www.w3.org/2000/svg" xmlns:xlink="http://www.w3.org/1999/xlink" version="1.1" id="Capa_1" x="0px" y="0px" viewBox="0 0 208.958 208.958" style="enable-background:new 0 0 208.958 208.958;" xml:space="preserve" width="512px" height="512px" class=""><g><path d="M206.762,99.176L194.215,86.63l6.79-16.393c1.586-3.827-0.231-8.214-4.059-9.799l-16.393-6.791V35.904  c0-4.143-3.357-7.5-7.5-7.5h-17.742l-6.791-16.393c-1.585-3.827-5.972-5.644-9.799-4.059l-16.393,6.79L109.783,2.196  c-2.932-2.929-7.68-2.927-10.607,0L86.63,14.743l-16.393-6.79c-3.825-1.587-8.214,0.232-9.799,4.059l-6.791,16.393H35.905  c-4.143,0-7.5,3.357-7.5,7.5v17.743l-16.393,6.791c-3.827,1.585-5.645,5.972-4.059,9.799l6.79,16.393L2.197,99.176  C0.79,100.583,0,102.49,0,104.479s0.79,3.896,2.197,5.304l12.547,12.546l-6.79,16.393c-0.762,1.838-0.762,3.902,0,5.74  c0.761,1.838,2.221,3.298,4.059,4.059l16.393,6.79v17.743c0,4.143,3.357,7.5,7.5,7.5h17.742l6.791,16.393  c1.585,3.826,5.971,5.643,9.799,4.059l16.393-6.79l12.546,12.547c1.465,1.464,3.384,2.196,5.304,2.196  c1.919,0,3.839-0.732,5.304-2.196l12.546-12.547l16.393,6.79c3.826,1.588,8.214-0.232,9.799-4.059l6.791-16.393h17.742  c4.143,0,7.5-3.357,7.5-7.5V155.31l16.393-6.79c1.838-0.761,3.298-2.221,4.059-4.059c0.762-1.838,0.762-3.902,0-5.74l-6.79-16.393  l12.547-12.546C209.69,106.853,209.69,102.105,206.762,99.176z M104.479,175.174c-38.981,0-70.694-31.713-70.694-70.694  s31.713-70.694,70.694-70.694s70.694,31.713,70.694,70.694S143.461,175.174,104.479,175.174z M104.479,48.785  c-30.71,0-55.694,24.984-55.694,55.694s24.984,55.694,55.694,55.694s55.694-24.984,55.694-55.694S135.189,48.785,104.479,48.785z   M124.816,110.291l-13.309,29.754c-1.247,2.786-3.983,4.439-6.851,4.439c-1.023,0-2.063-0.211-3.059-0.655  c-3.781-1.691-5.475-6.128-3.784-9.909l8.585-19.191h-15.41c-2.536,0-4.9-1.281-6.284-3.406c-1.385-2.125-1.601-4.806-0.576-7.125  L97.801,73.26c1.676-3.788,6.106-5.501,9.892-3.829c3.789,1.675,5.503,6.104,3.829,9.892l-9.019,20.406h15.467  c2.542,0,4.911,1.287,6.294,3.421C125.646,105.282,125.854,107.971,124.816,110.291z" data-original="#000000" class="active-path" data-old_color="#000000" fill="#FFFFFF"/></g> </svg>
